<?xml version="1.0" encoding="utf-8"?>
<!-- Generator: Adobe Illustrator 27.8.0, SVG Export Plug-In . SVG Version: 6.00 Build 0)  -->
<svg version="1.1" id="Layer_1" xmlns="http://www.w3.org/2000/svg" xmlns:xlink="http://www.w3.org/1999/xlink" x="0px" y="0px"
	 viewBox="0 0 1700.79 946.96" style="enable-background:new 0 0 1700.79 946.96;" xml:space="preserve">
<style type="text/css">
	.st0{fill:#FFFFFF;}
</style>
<path class="st0" d="M577.05,450c-6.13,0-11.81-0.19-17.48,0.03c-40.23,1.59-80.13,6.56-120.13,10.58
	c-36.4,3.66-72.9,6.16-109.54,4.53c-16.62-0.74-32.48-4.75-47.66-11.23c-21.89-9.34-35.64-25.2-42.97-46.54
	c-5.93-17.26-5.14-34.31-0.39-51.7c8.93-32.72,27.16-60.16,51.84-84.19c29.95-29.16,64.09-53.28,100.97-73.92
	c46.94-26.27,96.57-46.87,149.63-59.43c30.41-7.2,61.42-11.47,92.84-10.82c23.77,0.49,47.1,4.27,68.9,13.96
	c14.67,6.53,26.62,15.97,33.17,30.26c2.6,5.68,3.68,11.99,5.55,18.34c5.38-0.73,11.3-1.62,17.24-2.31
	c22.05-2.54,44.15-4.76,66.39-3.21c15.29,1.06,30.5,2.67,44.67,8.99c24.05,10.72,35.67,29.51,34,54.59
	c-1.03,15.45-6.05,29.87-11.65,44.18c-4.37,11.16-9.01,22.22-13.52,33.32c-0.4,0.97-0.73,1.97-1.4,3.81
	c4.88-1.82,8.95-3.39,13.06-4.86c36.96-13.24,73.86-26.61,110.91-39.63c26.13-9.18,52.4-18,78.7-26.74
	c18.93-6.3,38.03-12.18,57-18.36c1.39-0.45,2.94-1.62,3.57-2.85c6.78-13.19,15.78-24.95,26.09-35.78
	c9.37-9.85,18.6-19.95,29.01-28.75c17.71-14.99,38.22-26.14,59.9-35.33c1.71-0.72,3.42-1.46,5.14-2.14
	c6.1-2.42,11.38-0.95,13.59,3.76c2.22,4.72-0.12,9.33-6.08,12.11c-6.72,3.14-13.57,6.06-20.1,9.53
	c-18.32,9.76-35.61,20.93-49.26,36.25c-8.62,9.68-16.42,20.01-24.58,30.06c-0.35,0.44-0.56,0.98-1.13,2.02
	c9.33-2.82,18.09-5.5,26.87-8.12c24.59-7.35,49.15-14.76,73.78-21.98c31.28-9.18,62.53-18.47,93.95-27.22
	c33.5-9.33,67.12-18.32,100.8-27.04c26.09-6.75,52.37-12.87,78.56-19.26c1.21-0.29,2.42-0.61,3.65-0.77
	c3.98-0.51,7.19,1.37,7.96,4.59c0.77,3.23-1.19,6.33-5.07,7.35c-7.01,1.84-14.08,3.48-21.13,5.16
	c-52.55,12.52-104.96,25.56-156.79,40.55c-60.67,17.54-121.23,35.4-181.83,53.16c-9.24,2.71-18.44,5.55-27.61,8.47
	c-1.21,0.39-2.63,1.47-3.08,2.56c-7.5,18.34-14.92,36.74-17.47,56.43c-2.56,19.7,0.71,38.63,9.7,56.58
	c5.55,11.07,15.39,16.73,28.03,18.26c13.43,1.62,26.65,0.16,39.65-3.12c12.49-3.14,24.9-6.55,37.37-9.75
	c11.15-2.86,22.4-3.31,33.74-0.97c14.55,3.01,23.3,11.5,26.71,25.05c0.43,1.72,0.64,3.48,0.93,5.23
	c4.28,25.74,18.88,44.32,43.52,56.01c17.35,8.23,36.14,11.67,55.01,14.77c12.4,2.04,24.9,3.55,37.33,5.44
	c1.74,0.27,3.95,0.95,4.84,2.16c0.94,1.27,1.31,3.8,0.56,5.06c-0.82,1.37-3.21,2.67-4.91,2.66c-5.19-0.03-10.4-0.52-15.56-1.16
	c-18.05-2.26-36.25-3.83-54.06-7.23c-19.2-3.66-37.78-9.67-53.98-20.68c-11.03-7.49-20.9-16.18-29.74-25.92
	c-4.38-4.83-4.32-4.63-10.08-1.61c-25.2,13.22-52.2,21.59-81.03,21.6c-33.98,0.02-62.76-12.33-83.92-38.13
	c-12.13-14.8-16.74-32.23-18.29-50.63c-2.83-33.74,4.65-65.66,18.47-96.53c0.71-1.6,1.35-3.22,2.3-5.51
	c-5.66,1.77-10.67,3.24-15.62,4.9c-42.65,14.29-85.39,28.35-127.89,43.03c-31.86,11-63.41,22.79-95.07,34.27
	c-6.22,2.25-12.37,4.67-18.48,7.17c-1.04,0.42-1.7,1.67-2.53,2.53c0.96,0.61,1.86,1.62,2.9,1.78c12.03,1.83,24.07,3.64,36.13,5.24
	c15.79,2.1,31.67,3.62,47.39,6.08c20.62,3.24,40.07,9.95,58.41,19.46c10.41,5.4,19.13,12.71,25.94,21.8
	c10.05,13.41,12.1,28.46,8.38,44.22c-3.93,16.65-12.09,31.52-22.58,45.31c-14.59,19.19-32.98,34.82-52.1,49.8
	c-23.79,18.63-49.76,34.35-75.48,50.38c-36.23,22.58-72.85,44.6-109.19,67.03c-17.31,10.69-34.33,21.8-51.51,32.67
	c-27.81,17.6-55.48,35.39-83.51,52.66c-29.08,17.92-58.47,35.41-87.85,52.9c-14.86,8.85-29.99,17.31-45.02,25.91
	c-4.45,2.55-7.39,2.31-9.29-0.56c-1.81-2.73-0.48-5.36,3.92-8c23.42-14.07,46.91-28.03,70.21-42.27
	c17.11-10.45,34.04-21.18,50.94-31.94c22.66-14.43,45.21-29.01,67.82-43.52c19.77-12.68,39.45-25.49,59.36-37.98
	c30.67-19.25,61.73-37.95,92.19-57.5c24.97-16.02,49.38-32.82,73.88-49.48c20.69-14.08,39.34-30.35,55.99-48.57
	c10.03-10.98,18.65-22.93,24.57-36.4c3.27-7.45,4.98-15.14,3.58-23.32c-0.79-4.61-3.14-7.75-7.63-9.66
	c-9.27-3.94-19.19-5.5-29.13-6.33c-14.53-1.22-29.13-1.55-43.69-2.42c-21.43-1.29-42.85-2.72-63.93-6.96
	c-16.16-3.26-30.63-9.5-42.43-20.69c-7.81-7.41-13.65-15.84-15.95-26.22c-0.1-0.46-0.32-0.91-0.77-2.15
	c-55.95,22.92-111.72,45.77-167.5,68.62c0.02,0.25,0.04,0.5,0.07,0.76c3.41,0.87,6.83,1.71,10.23,2.62
	c18.13,4.84,35.02,12.09,49.67,23.43c15.61,12.08,24.96,27.61,28.4,46.42c2.85,15.62-1.42,29.9-7.94,44.02
	c-12.27,26.58-31.36,48.06-54.95,66.18c-41.95,32.22-86.9,60.15-135.84,81.97c-41.09,18.32-82.59,35.89-126.35,47.97
	c-31.21,8.62-62.55,16.88-94.86,21.2c-26.21,3.51-52.47,5.1-78.82,1.42c-20.38-2.85-40.01-7.99-57.65-18.4
	c-16.1-9.5-28.75-21.94-34.05-39.64c-6.72-22.44-3.01-43.25,11.26-62.56c9.8-13.24,22.71-23.15,36.14-32.71
	c20.55-14.62,43.26-25.88,65.49-37.92c31.35-16.97,64.28-30.79,97.56-43.86c69.66-27.38,139.5-54.35,209.26-81.51
	C568.72,453.58,572.72,451.81,577.05,450z M718.73,212.38c-3.1,0.62-5.63,1.06-8.12,1.64c-42.52,10.03-85.04,20.06-126.41,33.94
	c-2,0.67-4.57,0.64-6.65,0.15c-3.29-0.79-5.17-3.77-5.16-6.97c0.01-3.59,2.23-6.25,6.61-7.66c11.82-3.81,23.53-7.98,35.51-11.25
	c34.39-9.39,68.9-18.43,103.38-27.51c2.18-0.57,3.17-1.39,2.39-3.39c-1.63-4.2-2.81-8.69-5.25-12.44
	c-4.38-6.71-11.23-10.97-18.83-14.03c-20.72-8.33-42.62-10.51-64.68-8.96c-30.34,2.13-59.98,8.36-88.86,17.44
	c-37.34,11.75-72.61,27.8-106.05,47.31c-45.4,26.5-85.21,58.69-115.15,101.04c-12.93,18.29-20.74,38.05-23.07,59.74
	c-1.07,9.92,1.48,18.88,10.44,25.48c10.12,7.46,21.23,12.73,33.87,15.09c34.36,6.42,69.03,10.13,104.06,9.61
	c27.5-0.41,54.98-2.1,82.49-2.73c30.42-0.7,60.86-0.84,91.14,3c1.25,0.16,2.71-0.16,3.89-0.64c36.43-14.76,72.84-29.59,109.26-44.37
	c25.05-10.16,50.07-20.4,75.25-30.27c4.43-1.74,6.59-3.94,7.74-8.32c3.33-12.77,10.77-23.83,17.73-35
	c8.5-13.64,17.65-26.92,26.14-40.56c5.96-9.58,11.37-19.47,13.5-30.61c1.48-7.74,0.13-14.83-5.89-20.45
	c-3.13-2.93-6.88-5.41-10.72-7.5c-9.31-5.07-19.85-6.55-30.24-7.92c-28.75-3.79-57.39-1.55-85.95,2.2
	c-0.95,0.12-2.12,1.34-2.49,2.29c-2.26,5.8-3.86,11.85-6.52,17.47c-9.07,19.12-22.5,35.6-37.16,51.03
	c-10.74,11.3-22.66,21.69-34.63,31.87c-25.6,21.77-53.29,41.01-82.53,58.2c-22.75,13.38-45.71,26.43-68.61,39.58
	c-4.08,2.34-8.27,4.54-12.52,6.6c-2.38,1.16-4.9,0.95-6.91-0.91c-2-1.85-2.49-4.24-1.14-6.48c0.81-1.34,2.36-2.44,3.82-3.26
	c9.01-5.07,18.14-9.95,27.14-15.04c28.24-15.97,56.29-32.28,82.68-50.88c16.95-11.95,32.93-25.13,49.18-37.94
	c23.08-18.2,41.87-39.83,56.96-64.34C712.9,229.23,716.5,221.43,718.73,212.38z M300.26,705.55c2.91-0.14,5.83-0.29,8.74-0.43
	c21.34-1.04,42.75-1.7,63.78-5.58c61.91-11.4,122.62-26.9,181.52-48.35c39.66-14.44,77.24-32.57,110.95-57.24
	c20.97-15.35,37.62-33.99,48.11-57.32c7.61-16.92,4.96-32.63-4.94-47.7c-8.37-12.75-21.4-20.15-35.45-26.02
	c-18.41-7.7-38.06-10.66-57.93-12.47c-1.58-0.14-3.37,0.14-4.84,0.72c-12.96,5.11-25.92,10.25-38.8,15.55
	c-56.48,23.24-113.1,46.19-169.34,69.93c-42.79,18.06-85.01,37.22-123.88,62.39c-25.54,16.54-49.11,34.84-67.14,58.91
	c-4.83,6.45-7.57,13.47-8.69,21.21c-0.48,3.29,0.49,5.96,2.87,8.34c4.37,4.38,9.46,7.87,15.48,9.7c7.82,2.38,15.72,4.7,23.77,6.16
	C262.92,706.68,281.59,706.57,300.26,705.55z"/>
</svg>
